# xmcd
#
# Track frame offsets:
#	150
#	16830
#	35819
#	55739
#	62957
#	74160
#	90759
#	103619
#	110482
#	125882
#	139245
#	160198
#	176476
#	190586
#	203447
#	223585
#	235601
#	248583
#	258075
#	271537
#	288582
#	306447
#
# Disc length: 4262 seconds
#
# Revision: 0
# Processed by: cddbd v1.5.2PL0 Copyright (c) Steve Scherf et al.
# Submitted via: EZCDAudioConverter 3.1.0.1
#
DISCID=3810a416
DTITLE=Canindé - Caninhando-Pelos bares da vida 2
DYEAR=2000
DGENRE=seresta
TTITLE0=Canteiros
TTITLE1=Chão de Giz
TTITLE2=Sozinho
TTITLE3=Revelação
TTITLE4=Girassol
TTITLE5=Nao Aprendi Dizer Adeus
TTITLE6=Casinha Branca
TTITLE7=Eternas Ondas
TTITLE8=Vila do Sossego
TTITLE9=Catedral
TTITLE10=Retrovisor
TTITLE11=Tudo Outra Vez
TTITLE12=Cidadão
TTITLE13=Medo da Chuva
TTITLE14=Dois
TTITLE15=Borbulhas de Amor
TTITLE16=Pingos de Amor
TTITLE17=Como
TTITLE18=Senhorita
TTITLE19=Um Sonhador
TTITLE20=Adimiravel Gado Novo
TTITLE21=De Volta Pro Aconchego
EXTD=
EXTT0=
EXTT1=
EXTT2=
EXTT3=
EXTT4=
EXTT5=
EXTT6=
EXTT7=
EXTT8=
EXTT9=
EXTT10=
EXTT11=
EXTT12=
EXTT13=
EXTT14=
EXTT15=
EXTT16=
EXTT17=
EXTT18=
EXTT19=
EXTT20=
EXTT21=
PLAYORDER=
